<?xml version="1.0" encoding="UTF-8" standalone="no"?>
<!-- Generated by IcoMoon.io -->

<svg
   xmlns:dc="http://purl.org/dc/elements/1.1/"
   xmlns:cc="http://creativecommons.org/ns#"
   xmlns:rdf="http://www.w3.org/1999/02/22-rdf-syntax-ns#"
   xmlns:svg="http://www.w3.org/2000/svg"
   xmlns="http://www.w3.org/2000/svg"
   xmlns:sodipodi="http://sodipodi.sourceforge.net/DTD/sodipodi-0.dtd"
   xmlns:inkscape="http://www.inkscape.org/namespaces/inkscape"
   version="1.1"
   width="15"
   height="15"
   viewBox="0 0 512 512"
   id="svg2"
   inkscape:version="0.91 r13725"
   sodipodi:docname="arrow-right.svg">
  <metadata
     id="metadata13">
    <rdf:RDF>
      <cc:Work
         rdf:about="">
        <dc:format>image/svg+xml</dc:format>
        <dc:type
           rdf:resource="http://purl.org/dc/dcmitype/StillImage" />
      </cc:Work>
    </rdf:RDF>
  </metadata>
  <defs
     id="defs11" />
  <sodipodi:namedview
     pagecolor="#ffffff"
     bordercolor="#666666"
     borderopacity="1"
     objecttolerance="10"
     gridtolerance="10"
     guidetolerance="10"
     inkscape:pageopacity="0"
     inkscape:pageshadow="2"
     inkscape:window-width="1920"
     inkscape:window-height="1018"
     id="namedview9"
     showgrid="false"
     inkscape:zoom="15.733333"
     inkscape:cx="7.5"
     inkscape:cy="7.5"
     inkscape:window-x="-8"
     inkscape:window-y="-8"
     inkscape:window-maximized="1"
     inkscape:current-layer="svg2" />
  <title
     id="title4" />
  <g
     id="icomoon-ignore" />
  <path
     d="M310.627 438.627l160-160c12.497-12.496 12.497-32.758 0-45.255l-160-160c-12.497-12.496-32.758-12.496-45.255 0s-12.497 32.758 0 45.255l105.373 105.373h-306.745c-17.673 0-32 14.327-32 32s14.327 32 32 32h306.745l-105.373 105.373c-6.248 6.248-9.372 14.438-9.372 22.627s3.124 16.379 9.372 22.627c12.497 12.497 32.758 12.497 45.255 0z"
     id="path7" />
  <path
     style="opacity:0.97000002;fill:#ffffff;fill-opacity:1;stroke:none;stroke-width:0.30000001;stroke-linejoin:miter;stroke-miterlimit:0;stroke-dasharray:none;stroke-opacity:1"
     d="M 7.9866864,12.962096 C 7.6257172,12.741969 7.4474002,12.295144 7.5710294,11.920543 7.6168583,11.781681 8.1730189,11.180167 9.2603536,10.09346 10.151905,9.2024231 10.881356,8.4517309 10.881356,8.4252553 c 0,-0.026475 -2.1055895,-0.048137 -4.6790878,-0.048137 l -4.6790877,0 L 1.2805431,8.1344812 C 1.1470925,8.0010307 1.0186019,7.8149317 0.99500848,7.7209279 0.93467988,7.4805596 1.009109,7.1492029 1.1691217,6.9457797 1.4490556,6.5899014 1.3373995,6.5974576 6.3162114,6.5974576 l 4.5914806,0 L 9.2802852,4.9608051 C 7.4421979,3.1122751 7.3960131,3.044248 7.6059286,2.4945924 7.7968081,1.9947815 8.3057066,1.786348 8.7932809,2.0082792 9.2065182,2.1963744 13.89772,6.9225634 13.981333,7.2350251 c 0.143478,0.53617 0.201329,0.4625731 -2.487741,3.1648469 -1.36798,1.374697 -2.5644702,2.540216 -2.6588678,2.590043 -0.2374678,0.125345 -0.6173079,0.112884 -0.8480378,-0.02782 z"
     id="path4141"
     inkscape:connector-curvature="0"
     transform="scale(34.133333,34.133333)" />
</svg>
