<svg xmlns="http://www.w3.org/2000/svg" viewBox="0 0 34.644 33.796"><defs><style>.a{fill:#010101;}</style></defs><g transform="translate(0 -5.365)"><path class="a" d="M32.32,13.992a17.246,17.246,0,0,0-6.3-6.3,16.942,16.942,0,0,0-8.695-2.323A16.944,16.944,0,0,0,8.627,7.688a17.244,17.244,0,0,0-6.3,6.3A16.943,16.943,0,0,0,0,22.686,16.834,16.834,0,0,0,3.3,32.869a16.965,16.965,0,0,0,8.537,6.259,1.01,1.01,0,0,0,.9-.158.882.882,0,0,0,.293-.676q0-.068-.011-1.218t-.011-2.007l-.519.09a6.618,6.618,0,0,1-1.252.079,9.537,9.537,0,0,1-1.567-.158A3.5,3.5,0,0,1,8.164,34.4a2.862,2.862,0,0,1-.992-1.387L6.946,32.5a5.636,5.636,0,0,0-.71-1.15,2.722,2.722,0,0,0-.981-.857L5.1,30.378a1.656,1.656,0,0,1-.293-.271,1.237,1.237,0,0,1-.2-.316q-.068-.158.113-.26a1.463,1.463,0,0,1,.654-.1l.451.067a3.292,3.292,0,0,1,1.116.541,3.64,3.64,0,0,1,1.094,1.172,3.976,3.976,0,0,0,1.252,1.41,2.655,2.655,0,0,0,1.477.485,6.414,6.414,0,0,0,1.286-.112,4.486,4.486,0,0,0,1.015-.338,3.654,3.654,0,0,1,1.105-2.323,15.444,15.444,0,0,1-2.312-.406,9.2,9.2,0,0,1-2.12-.88,6.072,6.072,0,0,1-1.816-1.511,7.262,7.262,0,0,1-1.184-2.368,11.261,11.261,0,0,1-.462-3.383,6.578,6.578,0,0,1,1.782-4.646,6.063,6.063,0,0,1,.158-4.6,3.16,3.16,0,0,1,1.94.3,13.561,13.561,0,0,1,1.883.868q.6.36.959.609a16.289,16.289,0,0,1,8.661,0l.857-.541a12.138,12.138,0,0,1,2.075-.993,2.956,2.956,0,0,1,1.828-.248,6,6,0,0,1,.18,4.6,6.58,6.58,0,0,1,1.782,4.646,11.387,11.387,0,0,1-.462,3.394,6.98,6.98,0,0,1-1.195,2.368,6.305,6.305,0,0,1-1.827,1.5,9.222,9.222,0,0,1-2.12.88,15.427,15.427,0,0,1-2.312.407,4.017,4.017,0,0,1,1.172,3.2v4.758a.9.9,0,0,0,.282.676.98.98,0,0,0,.891.158,16.962,16.962,0,0,0,8.537-6.259,16.837,16.837,0,0,0,3.3-10.183A16.957,16.957,0,0,0,32.32,13.992Z"/></g></svg>